<svg width="730" height="320" viewBox="0 0 730 320" fill="none" xmlns="http://www.w3.org/2000/svg">
<path d="M673.68 214.921V206.301H657.521V173.441H641.36V161.321H657.521V78.8809H644.581V68.3809H662.36V39.5609H657.521V18.2609H641.36V4.46094H587.961L582.12 18.2609H598.28L598.16 18.5409L589.26 39.5609H594.1L581.92 68.3809H564.141L559.72 78.8809H572.66L554.66 121.441L548.86 135.181L537.8 161.321H521.641L516.521 173.441H532.68L532 175.061L518.78 206.301H534.94L531.3 214.921V224.361H515.141V238.101H498.98V252.121H515.141V259.421H609.48V282.021H593.32V295.761H609.48V315.941H657.54V295.761H641.38V282.021H657.54V259.421H680.68V252.121H664.521V238.101H680.68V224.361H696.841V214.921H673.701H673.68ZM576.901 175.061L577.581 173.441H561.42L566.521 161.321H582.68L593.72 135.181L599.521 121.441L609.44 97.9009V161.321H593.28V173.441H609.44V206.301H625.6V214.921H576.22L579.86 206.301H563.701L576.901 175.061Z" fill="#1EEBD8"/>
<path d="M174.7 206.301H158.54V173.441H142.38V161.321H158.54V78.8809H145.6V68.3809H163.38V39.5609H158.54V18.2609H142.38V4.46094H88.98L83.14 18.2609H99.3L99.18 18.5409L90.28 39.5609H95.12L82.94 68.3809H65.16L60.74 78.8809H73.68L55.68 121.441L49.88 135.181L38.82 161.321H22.66L17.54 173.441H33.7L33.02 175.061L19.8 206.301H35.96L32.32 214.921V224.361H16.16V238.101H0V252.121H16.16V259.421H110.5V282.021H94.34V295.761H110.5V315.941H158.54V295.761H142.38V282.021H158.54V259.421H181.7V252.121H165.54V238.101H181.7V224.361H197.86V214.921H174.7V206.301ZM77.9 175.061L78.58 173.441H62.42L67.54 161.321H83.7L94.74 135.181L100.52 121.441L110.46 97.9009V161.321H94.3V173.441H110.46V206.301H126.62V214.921H77.22L80.86 206.301H64.7L77.9 175.061Z" fill="#1EEBD8"/>
<path d="M421.82 175.062V173.442H405.66V161.322H421.82V78.8819H408.88C408.88 75.2619 408.72 71.7619 408.42 68.3819H426.2C425.32 57.5619 423 47.9219 419.34 39.5619H414.5C410.9 31.2819 405.96 24.2419 399.78 18.5419C399.68 18.4419 399.58 18.3419 399.48 18.2619H383.32C370.88 6.92187 353.4 0.921875 331.32 0.921875C309.24 0.921875 291.76 6.92187 279.32 18.2619H295.48C295.48 18.2619 295.28 18.4419 295.18 18.5419C288.98 24.2419 284.08 31.2819 280.46 39.5619H285.3C281.64 47.9419 279.36 57.5619 278.44 68.3819H260.66C260.36 71.7619 260.22 75.2619 260.2 78.8819H273.14V161.322H256.98V173.442H273.14V206.302H289.3V224.362H273.14V238.102H256.98V241.182C256.98 244.942 257.12 248.602 257.44 252.122H273.6C273.8 254.602 274.08 257.042 274.46 259.402C275.72 267.762 277.9 275.322 280.98 282.042H264.82C267.14 287.122 269.96 291.702 273.28 295.782H289.44C297.32 305.482 307.96 312.362 321.2 316.122C329.06 318.362 337.82 319.522 347.48 319.522C357.14 319.522 365.88 318.382 373.74 316.122C387 312.362 397.64 305.482 405.5 295.782H389.34C392.66 291.682 395.48 287.122 397.8 282.042H413.96C417.04 275.342 419.22 267.762 420.48 259.402C420.86 257.042 421.12 254.622 421.34 252.122H405.18C405.48 248.602 405.64 244.942 405.64 241.182V238.102H421.8V224.362H437.96V206.302H421.8V175.062H421.82ZM389.04 224.362H372.88V238.102H356.72V244.302C356.72 247.122 356.56 249.742 356.26 252.122H372.42C372.08 254.802 371.54 257.222 370.82 259.402C367.18 270.502 358.88 275.002 347.52 275.002C336.16 275.002 327.86 270.482 324.22 259.402C323.5 257.242 322.96 254.802 322.62 252.122H306.46C306.16 249.722 306 247.122 306 244.302V238.102H322.16V224.362H338.32V206.302H322.16V173.442H306V161.322H322.16V78.8819H309.22V76.1019C309.22 73.3219 309.36 70.7419 309.68 68.3819H327.46C329.54 51.8819 338.74 45.4019 352.38 45.4019C366.02 45.4019 375.2 51.8619 377.3 68.3819H359.52C359.82 70.7619 359.98 73.3219 359.98 76.1019V78.8819H372.92V161.322H356.76V173.442H372.92V206.302H389.08V224.362H389.04Z" fill="#1EEBD8"/>
<path d="M706.02 214.921V206.301H689.86V173.441H673.7V161.321H689.86V78.8809H676.92V68.3809H694.7V39.5609H689.86V18.2609H673.7V4.46094H620.3L614.46 18.2609H630.62L630.5 18.5409L621.6 39.5609H626.44L614.26 68.3809H596.48L592.06 78.8809H605L587 121.441L581.2 135.181L570.14 161.321H553.98L548.86 173.441H565.02L564.34 175.061L551.12 206.301H567.28L563.64 214.921V224.361H547.48V238.101H531.32V252.121H547.48V259.421H641.82V282.021H625.66V295.761H641.82V315.941H689.88V295.761H673.72V282.021H689.88V259.421H713.02V252.121H696.86V238.101H713.02V224.361H729.18V214.921H706.04H706.02ZM609.22 175.061L609.9 173.441H593.74L598.84 161.321H615L626.04 135.181L631.84 121.441L641.76 97.9009V161.321H625.6V173.441H641.76V206.301H657.92V214.921H608.54L612.18 206.301H596.02L609.22 175.061Z" fill="#191DCC"/>
<path d="M207.02 206.301H190.86V173.441H174.7V161.321H190.86V78.8809H177.92V68.3809H195.7V39.5609H190.86V18.2609H174.7V4.46094H121.3L115.46 18.2609H131.62L131.5 18.5409L122.6 39.5609H127.44L115.26 68.3809H97.4803L93.0603 78.8809H106L88.0003 121.441L82.2003 135.181L71.1403 161.321H54.9803L49.8603 173.441H66.0203L65.3403 175.061L52.1203 206.301H68.2803L64.6403 214.921V224.361H48.4803V238.101H32.3203V252.121H48.4803V259.421H142.82V282.021H126.66V295.761H142.82V315.941H190.86V295.761H174.7V282.021H190.86V259.421H214.02V252.121H197.86V238.101H214.02V224.361H230.18V214.921H207.02V206.301ZM110.24 175.061L110.92 173.441H94.7603L99.8803 161.321H116.04L127.08 135.181L132.86 121.441L142.8 97.9009V161.321H126.64V173.441H142.8V206.301H158.96V214.921H109.56L113.2 206.301H97.0403L110.24 175.061Z" fill="#191DCC"/>
<path d="M454.141 175.062V173.442H437.981V161.322H454.141V78.8819H441.201C441.201 75.2619 441.041 71.7619 440.741 68.3819H458.521C457.641 57.5619 455.321 47.9219 451.661 39.5619H446.821C443.221 31.2819 438.281 24.2419 432.101 18.5419C432.001 18.4419 431.901 18.3419 431.801 18.2619H415.641C403.201 6.92187 385.721 0.921875 363.641 0.921875C341.561 0.921875 324.081 6.92187 311.641 18.2619H327.801C327.801 18.2619 327.601 18.4419 327.501 18.5419C321.301 24.2419 316.401 31.2819 312.781 39.5619H317.621C313.961 47.9419 311.681 57.5619 310.761 68.3819H292.981C292.681 71.7619 292.541 75.2619 292.521 78.8819H305.461V161.322H289.301V173.442H305.461V206.302H321.621V224.362H305.461V238.102H289.301V241.182C289.301 244.942 289.441 248.602 289.761 252.122H305.921C306.121 254.602 306.401 257.042 306.781 259.402C308.041 267.762 310.221 275.322 313.301 282.042H297.141C299.461 287.122 302.281 291.702 305.601 295.782H321.761C329.641 305.482 340.281 312.362 353.521 316.122C361.381 318.362 370.141 319.522 379.801 319.522C389.461 319.522 398.201 318.382 406.061 316.122C419.321 312.362 429.961 305.482 437.821 295.782H421.661C424.981 291.682 427.801 287.122 430.121 282.042H446.281C449.361 275.342 451.541 267.762 452.801 259.402C453.181 257.042 453.441 254.622 453.661 252.122H437.501C437.801 248.602 437.961 244.942 437.961 241.182V238.102H454.121V224.362H470.281V206.302H454.121V175.062H454.141ZM421.381 224.362H405.221V238.102H389.061V244.302C389.061 247.122 388.901 249.742 388.601 252.122H404.761C404.421 254.802 403.881 257.222 403.161 259.402C399.521 270.502 391.221 275.002 379.861 275.002C368.501 275.002 360.201 270.482 356.561 259.402C355.841 257.242 355.301 254.802 354.961 252.122H338.801C338.501 249.722 338.341 247.122 338.341 244.302V238.102H354.501V224.362H370.661V206.302H354.501V173.442H338.341V161.322H354.501V78.8819H341.561V76.1019C341.561 73.3219 341.701 70.7419 342.021 68.3819H359.801C361.881 51.8819 371.081 45.4019 384.721 45.4019C398.361 45.4019 407.541 51.8619 409.641 68.3819H391.861C392.161 70.7619 392.321 73.3219 392.321 76.1019V78.8819H405.261V161.322H389.101V173.442H405.261V206.302H421.421V224.362H421.381Z" fill="#191DCC"/>
<path d="M689.86 214.921V206.301H673.7V173.441H657.54V161.321H673.7V78.8809H660.76V68.3809H678.54V39.5609H673.7V18.2609H657.54V4.46094H604.14L598.3 18.2609H614.46L614.34 18.5409L605.44 39.5609H610.28L598.1 68.3809H580.32L575.9 78.8809H588.84L570.84 121.441L565.04 135.181L553.98 161.321H537.82L532.7 173.441H548.86L548.18 175.061L534.96 206.301H551.12L547.48 214.921V224.361H531.32V238.101H515.16V252.121H531.32V259.421H625.66V282.021H609.5V295.761H625.66V315.941H673.72V295.761H657.56V282.021H673.72V259.421H696.86V252.121H680.7V238.101H696.86V224.361H713.02V214.921H689.88H689.86ZM593.06 175.061L593.74 173.441H577.58L582.68 161.321H598.84L609.88 135.181L615.68 121.441L625.6 97.9009V161.321H609.44V173.441H625.6V206.301H641.76V214.921H592.38L596.02 206.301H579.86L593.06 175.061Z" fill="white"/>
<path d="M190.86 206.301H174.7V173.441H158.54V161.321H174.7V78.8809H161.76V68.3809H179.54V39.5609H174.7V18.2609H158.54V4.46094H105.14L99.3002 18.2609H115.46L115.34 18.5409L106.44 39.5609H111.28L99.1001 68.3809H81.3201L76.9001 78.8809H89.8401L71.8401 121.441L66.0401 135.181L54.9801 161.321H38.8201L33.7001 173.441H49.8602L49.1801 175.061L35.9601 206.301H52.1201L48.4801 214.921V224.361H32.3201V238.101H16.1602V252.121H32.3201V259.421H126.66V282.021H110.5V295.761H126.66V315.941H174.7V295.761H158.54V282.021H174.7V259.421H197.86V252.121H181.7V238.101H197.86V224.361H214.02V214.921H190.86V206.301ZM94.0802 175.061L94.7601 173.441H78.6001L83.7202 161.321H99.8802L110.92 135.181L116.7 121.441L126.64 97.9009V161.321H110.48V173.441H126.64V206.301H142.8V214.921H93.4001L97.0401 206.301H80.8802L94.0802 175.061Z" fill="white"/>
<path d="M437.981 175.062V173.442H421.821V161.322H437.981V78.8819H425.041C425.041 75.2619 424.881 71.7619 424.581 68.3819H442.361C441.481 57.5619 439.161 47.9219 435.501 39.5619H430.661C427.061 31.2819 422.121 24.2419 415.941 18.5419C415.841 18.4419 415.741 18.3419 415.641 18.2619H399.481C387.041 6.92187 369.561 0.921875 347.481 0.921875C325.401 0.921875 307.921 6.92187 295.481 18.2619H311.641C311.641 18.2619 311.441 18.4419 311.341 18.5419C305.141 24.2419 300.241 31.2819 296.621 39.5619H301.461C297.801 47.9419 295.521 57.5619 294.601 68.3819H276.821C276.521 71.7619 276.381 75.2619 276.361 78.8819H289.301V161.322H273.141V173.442H289.301V206.302H305.461V224.362H289.301V238.102H273.141V241.182C273.141 244.942 273.281 248.602 273.601 252.122H289.761C289.961 254.602 290.241 257.042 290.621 259.402C291.881 267.762 294.061 275.322 297.141 282.042H280.981C283.301 287.122 286.121 291.702 289.441 295.782H305.601C313.481 305.482 324.121 312.362 337.361 316.122C345.221 318.362 353.981 319.522 363.641 319.522C373.301 319.522 382.041 318.382 389.901 316.122C403.161 312.362 413.801 305.482 421.661 295.782H405.501C408.821 291.682 411.641 287.122 413.961 282.042H430.121C433.201 275.342 435.381 267.762 436.641 259.402C437.021 257.042 437.281 254.622 437.501 252.122H421.341C421.641 248.602 421.801 244.942 421.801 241.182V238.102H437.961V224.362H454.121V206.302H437.961V175.062H437.981ZM405.221 224.362H389.061V238.102H372.901V244.302C372.901 247.122 372.741 249.742 372.441 252.122H388.601C388.261 254.802 387.721 257.222 387.001 259.402C383.361 270.502 375.061 275.002 363.701 275.002C352.341 275.002 344.041 270.482 340.401 259.402C339.681 257.242 339.141 254.802 338.801 252.122H322.641C322.341 249.722 322.181 247.122 322.181 244.302V238.102H338.341V224.362H354.501V206.302H338.341V173.442H322.181V161.322H338.341V78.8819H325.401V76.1019C325.401 73.3219 325.541 70.7419 325.861 68.3819H343.641C345.721 51.8819 354.921 45.4019 368.561 45.4019C382.201 45.4019 391.381 51.8619 393.481 68.3819H375.701C376.001 70.7619 376.161 73.3219 376.161 76.1019V78.8819H389.101V161.322H372.941V173.442H389.101V206.302H405.261V224.362H405.221Z" fill="white"/>
</svg>
