<svg width="557" height="36" viewBox="0 0 557 36" fill="none" xmlns="http://www.w3.org/2000/svg">
<path d="M123.977 1.51562H146.055V6.625H130.07V15.9062H144.883V21.0156H130.07V30.2969H146.148V35.4531H123.977V1.51562Z" fill="#03DAC6"/>
<path d="M101.37 12.3438C100.808 10.5156 99.8389 9.09375 98.4639 8.07812C97.0889 7.04688 95.3857 6.53125 93.3545 6.53125C91.5264 6.53125 89.8936 7 88.4561 7.9375C87.0342 8.85938 85.9248 10.2188 85.1279 12.0156C84.3311 13.8125 83.9326 15.9531 83.9326 18.4375C83.9326 20.9531 84.3311 23.1172 85.1279 24.9297C85.9248 26.7266 87.042 28.0938 88.4795 29.0312C89.917 29.9688 91.5889 30.4375 93.4951 30.4375C95.1826 30.4375 96.6592 30.1172 97.9248 29.4766C99.2061 28.8203 100.19 27.8984 100.878 26.7109C101.581 25.5078 101.948 24.1094 101.979 22.5156H94.1045V17.6875H107.886V21.7656C107.886 24.625 107.269 27.125 106.034 29.2656C104.815 31.4062 103.12 33.0547 100.948 34.2109C98.7764 35.3516 96.292 35.9219 93.4951 35.9219C90.3857 35.9219 87.6436 35.2188 85.2686 33.8125C82.8936 32.3906 81.0498 30.3672 79.7373 27.7422C78.4404 25.1016 77.792 22.0156 77.792 18.4844C77.792 14.9375 78.4561 11.8516 79.7842 9.22656C81.1279 6.58594 82.9717 4.5625 85.3154 3.15625C87.6748 1.75 90.3389 1.04688 93.3076 1.04688C95.7607 1.04688 98.0107 1.52344 100.058 2.47656C102.12 3.42969 103.808 4.76562 105.12 6.48438C106.433 8.1875 107.261 10.1406 107.604 12.3438H101.37Z" fill="#03DAC6"/>
<path d="M34.1846 35.4531L46.1377 1.51562H53.6377L65.6377 35.4531H59.1221L56.2861 27.0625H43.5127L40.7002 35.4531H34.1846ZM54.6455 22.1406L50.0283 8.45312H49.7471L45.1533 22.1406H54.6455Z" fill="#03DAC6"/>
<path d="M0 1.51562H12.75C15.2812 1.51562 17.4375 1.99219 19.2188 2.94531C21.0156 3.89844 22.375 5.22656 23.2969 6.92969C24.2188 8.61719 24.6875 10.5625 24.7031 12.7656C24.6875 14.9531 24.2109 16.8906 23.2734 18.5781C22.3516 20.2656 20.9844 21.5859 19.1719 22.5391C17.375 23.4922 15.2031 23.9688 12.6562 23.9688H6.09375V35.4531H0V1.51562ZM11.8125 18.9531C14.0312 18.9375 15.6953 18.375 16.8047 17.2656C17.9141 16.1406 18.4688 14.6406 18.4688 12.7656C18.4688 10.875 17.9141 9.38281 16.8047 8.28906C15.6953 7.17969 14.0312 6.625 11.8125 6.625H6.09375V18.9531H11.8125Z" fill="#03DAC6"/>
<path d="M131.977 1.51562H154.055V6.625H138.07V15.9062H152.883V21.0156H138.07V30.2969H154.148V35.4531H131.977V1.51562Z" fill="#2227F7"/>
<path d="M109.37 12.3438C108.808 10.5156 107.839 9.09375 106.464 8.07812C105.089 7.04688 103.386 6.53125 101.354 6.53125C99.5264 6.53125 97.8936 7 96.4561 7.9375C95.0342 8.85938 93.9248 10.2188 93.1279 12.0156C92.3311 13.8125 91.9326 15.9531 91.9326 18.4375C91.9326 20.9531 92.3311 23.1172 93.1279 24.9297C93.9248 26.7266 95.042 28.0938 96.4795 29.0312C97.917 29.9688 99.5889 30.4375 101.495 30.4375C103.183 30.4375 104.659 30.1172 105.925 29.4766C107.206 28.8203 108.19 27.8984 108.878 26.7109C109.581 25.5078 109.948 24.1094 109.979 22.5156H102.104V17.6875H115.886V21.7656C115.886 24.625 115.269 27.125 114.034 29.2656C112.815 31.4062 111.12 33.0547 108.948 34.2109C106.776 35.3516 104.292 35.9219 101.495 35.9219C98.3857 35.9219 95.6436 35.2188 93.2686 33.8125C90.8936 32.3906 89.0498 30.3672 87.7373 27.7422C86.4404 25.1016 85.792 22.0156 85.792 18.4844C85.792 14.9375 86.4561 11.8516 87.7842 9.22656C89.1279 6.58594 90.9717 4.5625 93.3154 3.15625C95.6748 1.75 98.3389 1.04688 101.308 1.04688C103.761 1.04688 106.011 1.52344 108.058 2.47656C110.12 3.42969 111.808 4.76562 113.12 6.48438C114.433 8.1875 115.261 10.1406 115.604 12.3438H109.37Z" fill="#2227F7"/>
<path d="M42.1846 35.4531L54.1377 1.51562H61.6377L73.6377 35.4531H67.1221L64.2861 27.0625H51.5127L48.7002 35.4531H42.1846ZM62.6455 22.1406L58.0283 8.45312H57.7471L53.1533 22.1406H62.6455Z" fill="#2227F7"/>
<path d="M8 1.51562H20.75C23.2812 1.51562 25.4375 1.99219 27.2188 2.94531C29.0156 3.89844 30.375 5.22656 31.2969 6.92969C32.2188 8.61719 32.6875 10.5625 32.7031 12.7656C32.6875 14.9531 32.2109 16.8906 31.2734 18.5781C30.3516 20.2656 28.9844 21.5859 27.1719 22.5391C25.375 23.4922 23.2031 23.9688 20.6562 23.9688H14.0938V35.4531H8V1.51562ZM19.8125 18.9531C22.0312 18.9375 23.6953 18.375 24.8047 17.2656C25.9141 16.1406 26.4688 14.6406 26.4688 12.7656C26.4688 10.875 25.9141 9.38281 24.8047 8.28906C23.6953 7.17969 22.0312 6.625 19.8125 6.625H14.0938V18.9531H19.8125Z" fill="#2227F7"/>
<path d="M127.117 1.10938H149.195V6.21875H133.211V15.5H148.023V20.6094H133.211V29.8906H149.289V35.0469H127.117V1.10938Z" fill="white"/>
<path d="M104.511 11.9375C103.948 10.1094 102.979 8.6875 101.604 7.67188C100.229 6.64062 98.5264 6.125 96.4951 6.125C94.667 6.125 93.0342 6.59375 91.5967 7.53125C90.1748 8.45312 89.0654 9.8125 88.2686 11.6094C87.4717 13.4062 87.0732 15.5469 87.0732 18.0312C87.0732 20.5469 87.4717 22.7109 88.2686 24.5234C89.0654 26.3203 90.1826 27.6875 91.6201 28.625C93.0576 29.5625 94.7295 30.0312 96.6357 30.0312C98.3232 30.0312 99.7998 29.7109 101.065 29.0703C102.347 28.4141 103.331 27.4922 104.019 26.3047C104.722 25.1016 105.089 23.7031 105.12 22.1094H97.2451V17.2812H111.026V21.3594C111.026 24.2188 110.409 26.7188 109.175 28.8594C107.956 31 106.261 32.6484 104.089 33.8047C101.917 34.9453 99.4326 35.5156 96.6357 35.5156C93.5264 35.5156 90.7842 34.8125 88.4092 33.4062C86.0342 31.9844 84.1904 29.9609 82.8779 27.3359C81.5811 24.6953 80.9326 21.6094 80.9326 18.0781C80.9326 14.5312 81.5967 11.4453 82.9248 8.82031C84.2686 6.17969 86.1123 4.15625 88.4561 2.75C90.8154 1.34375 93.4795 0.640625 96.4482 0.640625C98.9014 0.640625 101.151 1.11719 103.198 2.07031C105.261 3.02344 106.948 4.35938 108.261 6.07812C109.573 7.78125 110.401 9.73438 110.745 11.9375H104.511Z" fill="white"/>
<path d="M37.3252 35.0469L49.2783 1.10938H56.7783L68.7783 35.0469H62.2627L59.4268 26.6562H46.6533L43.8408 35.0469H37.3252ZM57.7861 21.7344L53.1689 8.04688H52.8877L48.2939 21.7344H57.7861Z" fill="white"/>
<path d="M3.14062 1.10938H15.8906C18.4219 1.10938 20.5781 1.58594 22.3594 2.53906C24.1562 3.49219 25.5156 4.82031 26.4375 6.52344C27.3594 8.21094 27.8281 10.1562 27.8438 12.3594C27.8281 14.5469 27.3516 16.4844 26.4141 18.1719C25.4922 19.8594 24.125 21.1797 22.3125 22.1328C20.5156 23.0859 18.3438 23.5625 15.7969 23.5625H9.23438V35.0469H3.14062V1.10938ZM14.9531 18.5469C17.1719 18.5312 18.8359 17.9688 19.9453 16.8594C21.0547 15.7344 21.6094 14.2344 21.6094 12.3594C21.6094 10.4688 21.0547 8.97656 19.9453 7.88281C18.8359 6.77344 17.1719 6.21875 14.9531 6.21875H9.23438V18.5469H14.9531Z" fill="white"/>
<path d="M279.159 1.51562H306.206V6.625H295.753V35.4531H289.659V6.625H279.159V1.51562Z" fill="#03DAC6"/>
<path d="M266.161 18.4844C266.161 22.0625 265.489 25.1641 264.146 27.7891C262.817 30.4141 260.966 32.4297 258.591 33.8359C256.231 35.2266 253.567 35.9219 250.599 35.9219C247.614 35.9219 244.942 35.2266 242.583 33.8359C240.224 32.4297 238.372 30.4141 237.028 27.7891C235.7 25.1484 235.036 22.0469 235.036 18.4844C235.036 14.9062 235.7 11.8047 237.028 9.17969C238.372 6.53906 240.224 4.52344 242.583 3.13281C244.942 1.74219 247.614 1.04688 250.599 1.04688C253.567 1.04688 256.231 1.75 258.591 3.15625C260.966 4.54688 262.817 6.55469 264.146 9.17969C265.489 11.8047 266.161 14.9062 266.161 18.4844ZM241.177 18.4844C241.177 21.0156 241.567 23.1797 242.349 24.9766C243.146 26.7734 244.255 28.1328 245.677 29.0547C247.099 29.9766 248.739 30.4375 250.599 30.4375C252.474 30.4375 254.114 29.9766 255.521 29.0547C256.942 28.1328 258.044 26.7734 258.825 24.9766C259.622 23.1797 260.021 21.0156 260.021 18.4844C260.021 15.9531 259.622 13.7891 258.825 11.9922C258.044 10.1953 256.942 8.83594 255.521 7.91406C254.114 6.99219 252.474 6.53125 250.599 6.53125C248.739 6.53125 247.099 6.99219 245.677 7.91406C244.255 8.83594 243.146 10.1953 242.349 11.9922C241.567 13.7891 241.177 15.9531 241.177 18.4844Z" fill="#03DAC6"/>
<path d="M219.039 35.4531H213.602L197.523 12.25H197.242V35.4531H191.148V1.51562H196.68L212.664 24.7188H212.992V1.51562H219.039V35.4531Z" fill="#03DAC6"/>
<path d="M285.159 1.51562H312.206V6.625H301.753V35.4531H295.659V6.625H285.159V1.51562Z" fill="#2227F7"/>
<path d="M272.161 18.4844C272.161 22.0625 271.489 25.1641 270.146 27.7891C268.817 30.4141 266.966 32.4297 264.591 33.8359C262.231 35.2266 259.567 35.9219 256.599 35.9219C253.614 35.9219 250.942 35.2266 248.583 33.8359C246.224 32.4297 244.372 30.4141 243.028 27.7891C241.7 25.1484 241.036 22.0469 241.036 18.4844C241.036 14.9062 241.7 11.8047 243.028 9.17969C244.372 6.53906 246.224 4.52344 248.583 3.13281C250.942 1.74219 253.614 1.04688 256.599 1.04688C259.567 1.04688 262.231 1.75 264.591 3.15625C266.966 4.54688 268.817 6.55469 270.146 9.17969C271.489 11.8047 272.161 14.9062 272.161 18.4844ZM247.177 18.4844C247.177 21.0156 247.567 23.1797 248.349 24.9766C249.146 26.7734 250.255 28.1328 251.677 29.0547C253.099 29.9766 254.739 30.4375 256.599 30.4375C258.474 30.4375 260.114 29.9766 261.521 29.0547C262.942 28.1328 264.044 26.7734 264.825 24.9766C265.622 23.1797 266.021 21.0156 266.021 18.4844C266.021 15.9531 265.622 13.7891 264.825 11.9922C264.044 10.1953 262.942 8.83594 261.521 7.91406C260.114 6.99219 258.474 6.53125 256.599 6.53125C254.739 6.53125 253.099 6.99219 251.677 7.91406C250.255 8.83594 249.146 10.1953 248.349 11.9922C247.567 13.7891 247.177 15.9531 247.177 18.4844Z" fill="#2227F7"/>
<path d="M225.039 35.4531H219.602L203.523 12.25H203.242V35.4531H197.148V1.51562H202.68L218.664 24.7188H218.992V1.51562H225.039V35.4531Z" fill="#2227F7"/>
<path d="M282.3 1.10938H309.347V6.21875H298.894V35.0469H292.8V6.21875H282.3V1.10938Z" fill="white"/>
<path d="M269.302 18.0781C269.302 21.6562 268.63 24.7578 267.286 27.3828C265.958 30.0078 264.106 32.0234 261.731 33.4297C259.372 34.8203 256.708 35.5156 253.739 35.5156C250.755 35.5156 248.083 34.8203 245.724 33.4297C243.364 32.0234 241.513 30.0078 240.169 27.3828C238.841 24.7422 238.177 21.6406 238.177 18.0781C238.177 14.5 238.841 11.3984 240.169 8.77344C241.513 6.13281 243.364 4.11719 245.724 2.72656C248.083 1.33594 250.755 0.640625 253.739 0.640625C256.708 0.640625 259.372 1.34375 261.731 2.75C264.106 4.14062 265.958 6.14844 267.286 8.77344C268.63 11.3984 269.302 14.5 269.302 18.0781ZM244.317 18.0781C244.317 20.6094 244.708 22.7734 245.489 24.5703C246.286 26.3672 247.396 27.7266 248.817 28.6484C250.239 29.5703 251.88 30.0312 253.739 30.0312C255.614 30.0312 257.255 29.5703 258.661 28.6484C260.083 27.7266 261.185 26.3672 261.966 24.5703C262.763 22.7734 263.161 20.6094 263.161 18.0781C263.161 15.5469 262.763 13.3828 261.966 11.5859C261.185 9.78906 260.083 8.42969 258.661 7.50781C257.255 6.58594 255.614 6.125 253.739 6.125C251.88 6.125 250.239 6.58594 248.817 7.50781C247.396 8.42969 246.286 9.78906 245.489 11.5859C244.708 13.3828 244.317 15.5469 244.317 18.0781Z" fill="white"/>
<path d="M222.18 35.0469H216.742L200.664 11.8438H200.383V35.0469H194.289V1.10938H199.82L215.805 24.3125H216.133V1.10938H222.18V35.0469Z" fill="white"/>
<path d="M522.087 35.4062V1.46875H533.806C537.165 1.46875 540.063 2.14844 542.501 3.50781C544.938 4.85156 546.806 6.79688 548.103 9.34375C549.415 11.875 550.071 14.8906 550.071 18.3906C550.071 21.9062 549.415 24.9453 548.103 27.5078C546.79 30.0547 544.899 32.0078 542.431 33.3672C539.962 34.7266 537.024 35.4062 533.618 35.4062H522.087ZM533.29 30.1094C540.415 30.1406 543.978 26.2344 543.978 18.3906C543.978 14.5156 543.095 11.6094 541.329 9.67188C539.563 7.71875 536.946 6.75 533.478 6.76562H528.181V30.1094H533.29Z" fill="#03DAC6"/>
<path d="M505.245 35.4062H499.808L483.729 12.2031H483.448V35.4062H477.354V1.46875H482.886L498.87 24.6719H499.198V1.46875H505.245V35.4062Z" fill="#03DAC6"/>
<path d="M460.514 1.46875V23.6406C460.514 26.0469 459.936 28.1797 458.779 30.0391C457.639 31.8984 456.021 33.3438 453.928 34.375C451.85 35.4062 449.451 35.9219 446.732 35.9219C443.998 35.9219 441.592 35.4062 439.514 34.375C437.436 33.3438 435.818 31.8984 434.662 30.0391C433.521 28.1797 432.951 26.0469 432.951 23.6406V1.46875H439.045V23.125C439.045 24.5469 439.357 25.8125 439.982 26.9219C440.623 28.0312 441.521 28.9062 442.678 29.5469C443.85 30.1719 445.201 30.4844 446.732 30.4844C448.264 30.4844 449.607 30.1719 450.764 29.5469C451.92 28.9062 452.811 28.0312 453.436 26.9219C454.061 25.8125 454.373 24.5469 454.373 23.125V1.46875H460.514Z" fill="#03DAC6"/>
<path d="M416.953 18.4375C416.953 22.0156 416.281 25.1172 414.937 27.7422C413.609 30.3672 411.758 32.3828 409.383 33.7891C407.023 35.1797 404.359 35.875 401.391 35.875C398.406 35.875 395.734 35.1797 393.375 33.7891C391.016 32.3828 389.164 30.3672 387.82 27.7422C386.492 25.1016 385.828 22 385.828 18.4375C385.828 14.8594 386.492 11.7578 387.82 9.13281C389.164 6.49219 391.016 4.47656 393.375 3.08594C395.734 1.69531 398.406 1 401.391 1C404.359 1 407.023 1.70312 409.383 3.10938C411.758 4.5 413.609 6.50781 414.937 9.13281C416.281 11.7578 416.953 14.8594 416.953 18.4375ZM391.969 18.4375C391.969 20.9688 392.359 23.1328 393.141 24.9297C393.938 26.7266 395.047 28.0859 396.469 29.0078C397.891 29.9297 399.531 30.3906 401.391 30.3906C403.266 30.3906 404.906 29.9297 406.312 29.0078C407.734 28.0859 408.836 26.7266 409.617 24.9297C410.414 23.1328 410.812 20.9688 410.812 18.4375C410.812 15.9062 410.414 13.7422 409.617 11.9453C408.836 10.1484 407.734 8.78906 406.312 7.86719C404.906 6.94531 403.266 6.48438 401.391 6.48438C399.531 6.48438 397.891 6.94531 396.469 7.86719C395.047 8.78906 393.938 10.1484 393.141 11.9453C392.359 13.7422 391.969 15.9062 391.969 18.4375Z" fill="#03DAC6"/>
<path d="M349.206 1.46875H370.956V6.57812H355.3V15.8594H369.456V20.9688H355.3V35.4062H349.206V1.46875Z" fill="#03DAC6"/>
<path d="M528.087 34.4062V0.46875H539.806C543.165 0.46875 546.063 1.14844 548.501 2.50781C550.938 3.85156 552.806 5.79688 554.103 8.34375C555.415 10.875 556.071 13.8906 556.071 17.3906C556.071 20.9062 555.415 23.9453 554.103 26.5078C552.79 29.0547 550.899 31.0078 548.431 32.3672C545.962 33.7266 543.024 34.4062 539.618 34.4062H528.087ZM539.29 29.1094C546.415 29.1406 549.978 25.2344 549.978 17.3906C549.978 13.5156 549.095 10.6094 547.329 8.67188C545.563 6.71875 542.946 5.75 539.478 5.76562H534.181V29.1094H539.29Z" fill="#2227F7"/>
<path d="M511.245 34.4062H505.808L489.729 11.2031H489.448V34.4062H483.354V0.46875H488.886L504.87 23.6719H505.198V0.46875H511.245V34.4062Z" fill="#2227F7"/>
<path d="M466.514 0.46875V22.6406C466.514 25.0469 465.936 27.1797 464.779 29.0391C463.639 30.8984 462.021 32.3438 459.928 33.375C457.85 34.4062 455.451 34.9219 452.732 34.9219C449.998 34.9219 447.592 34.4062 445.514 33.375C443.436 32.3438 441.818 30.8984 440.662 29.0391C439.521 27.1797 438.951 25.0469 438.951 22.6406V0.46875H445.045V22.125C445.045 23.5469 445.357 24.8125 445.982 25.9219C446.623 27.0312 447.521 27.9062 448.678 28.5469C449.85 29.1719 451.201 29.4844 452.732 29.4844C454.264 29.4844 455.607 29.1719 456.764 28.5469C457.92 27.9062 458.811 27.0312 459.436 25.9219C460.061 24.8125 460.373 23.5469 460.373 22.125V0.46875H466.514Z" fill="#2227F7"/>
<path d="M422.953 17.4375C422.953 21.0156 422.281 24.1172 420.937 26.7422C419.609 29.3672 417.758 31.3828 415.383 32.7891C413.023 34.1797 410.359 34.875 407.391 34.875C404.406 34.875 401.734 34.1797 399.375 32.7891C397.016 31.3828 395.164 29.3672 393.82 26.7422C392.492 24.1016 391.828 21 391.828 17.4375C391.828 13.8594 392.492 10.7578 393.82 8.13281C395.164 5.49219 397.016 3.47656 399.375 2.08594C401.734 0.695312 404.406 0 407.391 0C410.359 0 413.023 0.703125 415.383 2.10938C417.758 3.5 419.609 5.50781 420.937 8.13281C422.281 10.7578 422.953 13.8594 422.953 17.4375ZM397.969 17.4375C397.969 19.9688 398.359 22.1328 399.141 23.9297C399.938 25.7266 401.047 27.0859 402.469 28.0078C403.891 28.9297 405.531 29.3906 407.391 29.3906C409.266 29.3906 410.906 28.9297 412.312 28.0078C413.734 27.0859 414.836 25.7266 415.617 23.9297C416.414 22.1328 416.812 19.9688 416.812 17.4375C416.812 14.9062 416.414 12.7422 415.617 10.9453C414.836 9.14844 413.734 7.78906 412.312 6.86719C410.906 5.94531 409.266 5.48438 407.391 5.48438C405.531 5.48438 403.891 5.94531 402.469 6.86719C401.047 7.78906 399.938 9.14844 399.141 10.9453C398.359 12.7422 397.969 14.9062 397.969 17.4375Z" fill="#2227F7"/>
<path d="M355.206 0.46875H376.956V5.57812H361.3V14.8594H375.456V19.9688H361.3V34.4062H355.206V0.46875Z" fill="#2227F7"/>
<path d="M525.228 35V1.0625H536.946C540.306 1.0625 543.204 1.74219 545.642 3.10156C548.079 4.44531 549.946 6.39062 551.243 8.9375C552.556 11.4688 553.212 14.4844 553.212 17.9844C553.212 21.5 552.556 24.5391 551.243 27.1016C549.931 29.6484 548.04 31.6016 545.571 32.9609C543.103 34.3203 540.165 35 536.759 35H525.228ZM536.431 29.7031C543.556 29.7344 547.118 25.8281 547.118 17.9844C547.118 14.1094 546.235 11.2031 544.47 9.26562C542.704 7.3125 540.087 6.34375 536.618 6.35938H531.321V29.7031H536.431Z" fill="white"/>
<path d="M508.386 35H502.948L486.87 11.7969H486.589V35H480.495V1.0625H486.026L502.011 24.2656H502.339V1.0625H508.386V35Z" fill="white"/>
<path d="M463.654 1.0625V23.2344C463.654 25.6406 463.076 27.7734 461.92 29.6328C460.779 31.4922 459.162 32.9375 457.068 33.9688C454.99 35 452.592 35.5156 449.873 35.5156C447.139 35.5156 444.732 35 442.654 33.9688C440.576 32.9375 438.959 31.4922 437.803 29.6328C436.662 27.7734 436.092 25.6406 436.092 23.2344V1.0625H442.186V22.7188C442.186 24.1406 442.498 25.4062 443.123 26.5156C443.764 27.625 444.662 28.5 445.818 29.1406C446.99 29.7656 448.342 30.0781 449.873 30.0781C451.404 30.0781 452.748 29.7656 453.904 29.1406C455.061 28.5 455.951 27.625 456.576 26.5156C457.201 25.4062 457.514 24.1406 457.514 22.7188V1.0625H463.654Z" fill="white"/>
<path d="M420.094 18.0312C420.094 21.6094 419.422 24.7109 418.078 27.3359C416.75 29.9609 414.898 31.9766 412.523 33.3828C410.164 34.7734 407.5 35.4688 404.531 35.4688C401.547 35.4688 398.875 34.7734 396.516 33.3828C394.156 31.9766 392.305 29.9609 390.961 27.3359C389.633 24.6953 388.969 21.5938 388.969 18.0312C388.969 14.4531 389.633 11.3516 390.961 8.72656C392.305 6.08594 394.156 4.07031 396.516 2.67969C398.875 1.28906 401.547 0.59375 404.531 0.59375C407.5 0.59375 410.164 1.29688 412.523 2.70312C414.898 4.09375 416.75 6.10156 418.078 8.72656C419.422 11.3516 420.094 14.4531 420.094 18.0312ZM395.109 18.0312C395.109 20.5625 395.5 22.7266 396.281 24.5234C397.078 26.3203 398.188 27.6797 399.609 28.6016C401.031 29.5234 402.672 29.9844 404.531 29.9844C406.406 29.9844 408.047 29.5234 409.453 28.6016C410.875 27.6797 411.977 26.3203 412.758 24.5234C413.555 22.7266 413.953 20.5625 413.953 18.0312C413.953 15.5 413.555 13.3359 412.758 11.5391C411.977 9.74219 410.875 8.38281 409.453 7.46094C408.047 6.53906 406.406 6.07812 404.531 6.07812C402.672 6.07812 401.031 6.53906 399.609 7.46094C398.188 8.38281 397.078 9.74219 396.281 11.5391C395.5 13.3359 395.109 15.5 395.109 18.0312Z" fill="white"/>
<path d="M352.347 1.0625H374.097V6.17188H358.44V15.4531H372.597V20.5625H358.44V35H352.347V1.0625Z" fill="white"/>
</svg>
