<svg width="36" height="36" viewBox="0 0 36 36" fill="none" xmlns="http://www.w3.org/2000/svg">
<path d="M33.84 18.375C33.84 17.205 33.735 16.08 33.54 15H18V21.39H26.88C26.49 23.445 25.32 25.185 23.565 26.355V30.51H28.92C32.04 27.63 33.84 23.4 33.84 18.375Z" fill="#4285F4"/>
<path d="M17.9995 34.4994C22.4545 34.4994 26.1895 33.0294 28.9195 30.5094L23.5645 26.3544C22.0945 27.3444 20.2195 27.9444 17.9995 27.9444C13.7095 27.9444 10.0645 25.0494 8.75953 21.1494H3.26953V25.4094C5.98453 30.7944 11.5495 34.4994 17.9995 34.4994Z" fill="#34A853"/>
<path d="M8.76 21.1355C8.43 20.1455 8.235 19.0955 8.235 18.0005C8.235 16.9055 8.43 15.8555 8.76 14.8655V10.6055H3.27C2.145 12.8255 1.5 15.3305 1.5 18.0005C1.5 20.6705 2.145 23.1755 3.27 25.3955L7.545 22.0655L8.76 21.1355Z" fill="#FBBC05"/>
<path d="M17.9995 8.07C20.4295 8.07 22.5895 8.91 24.3145 10.53L29.0395 5.805C26.1745 3.135 22.4545 1.5 17.9995 1.5C11.5495 1.5 5.98453 5.205 3.26953 10.605L8.75953 14.865C10.0645 10.965 13.7095 8.07 17.9995 8.07Z" fill="#EA4335"/>
</svg>
