<svg width="36" height="36" viewBox="0 0 36 36" fill="none" xmlns="http://www.w3.org/2000/svg">
<path d="M17.8398 2.25C20.9255 2.25 23.7794 2.84999 26.4016 4.04997C29.0237 5.24995 31.0968 6.88167 32.6205 8.94516C34.1443 11.0086 34.9062 13.2593 34.9062 15.6974C34.9062 18.1354 34.1443 20.3894 32.6205 22.4592C31.0968 24.529 29.0269 26.1639 26.4111 27.3639C23.7953 28.5638 20.9381 29.1639 17.8398 29.1639C16.8621 29.1639 15.8525 29.094 14.8113 28.9543C10.2907 32.0908 7.88442 33.6781 7.59234 33.7161C7.4527 33.7669 7.31939 33.7606 7.19241 33.6971C7.14157 33.659 7.10346 33.6082 7.07808 33.5447C7.05269 33.4812 7.03997 33.4241 7.03997 33.3733V33.2971C7.11619 32.8018 7.69394 30.7384 8.77331 27.1067C6.32255 25.8877 4.37655 24.2719 2.93531 22.2592C1.49406 20.2466 0.773438 18.0593 0.773438 15.6974C0.773438 13.2593 1.53533 11.0086 3.05911 8.94516C4.5829 6.88167 6.65588 5.24995 9.27809 4.04997C11.9002 2.84999 14.7542 2.25 17.8398 2.25ZM9.19237 19.2592V13.4117H10.6971C10.9003 13.4117 11.113 13.3387 11.3351 13.1927C11.5574 13.0466 11.6685 12.8467 11.6685 12.5927C11.6685 12.3387 11.5669 12.126 11.3638 11.9546C11.1606 11.7832 10.9638 11.6975 10.7733 11.6975H5.82097C5.6051 11.6975 5.40193 11.761 5.21146 11.8879C5.02099 12.0149 4.92575 12.2245 4.92575 12.5165C4.92575 12.8085 5.02734 13.0308 5.2305 13.1832C5.43368 13.3355 5.66224 13.4117 5.91621 13.4117H7.42092V19.2592C7.42092 19.5767 7.49714 19.837 7.64951 20.0402C7.80187 20.2433 8.01773 20.3449 8.29709 20.3449C8.57651 20.3449 8.79553 20.2307 8.95423 20.0021C9.11299 19.7735 9.19237 19.5259 9.19237 19.2592ZM17.4398 20.3449C17.9096 20.1672 18.0557 19.7164 17.8779 18.9926C17.8271 18.8275 17.4684 17.8403 16.8017 16.0307C16.1351 14.2212 15.751 13.1895 15.6494 12.9355C15.3065 12.1101 14.8367 11.6975 14.2399 11.6975C13.5922 11.6975 13.0907 12.1101 12.7351 12.9355C12.6335 13.1514 12.2463 14.2022 11.5732 16.0879C10.9003 17.9736 10.551 18.9418 10.5256 18.9926C10.4368 19.1069 10.4145 19.3164 10.459 19.6211C10.5034 19.9259 10.64 20.1354 10.8685 20.2497C11.1225 20.364 11.3701 20.3767 11.6113 20.2878C11.8526 20.1989 12.0177 20.0656 12.1065 19.8878L12.5637 18.6307H15.878C16.0176 19.0878 16.1192 19.3862 16.1827 19.5259C16.2462 19.6529 16.316 19.7799 16.3922 19.9069C16.4684 20.0339 16.6081 20.1576 16.8113 20.2783C17.0144 20.3989 17.224 20.4211 17.4398 20.3449ZM22.5636 20.3449C22.8302 20.3449 23.0747 20.2624 23.2968 20.0974C23.5191 19.9323 23.6302 19.71 23.6302 19.4306C23.6302 19.1513 23.5286 18.9323 23.3255 18.7735C23.1223 18.6148 22.8683 18.5354 22.5636 18.5354H20.4493V12.7832C20.4493 12.5165 20.37 12.2689 20.2112 12.0403C20.0525 11.8117 19.8335 11.6975 19.554 11.6975C19.2747 11.6975 19.0588 11.7991 18.9065 12.0022C18.7541 12.2054 18.6779 12.4657 18.6779 12.7832V19.2592C18.6779 19.5767 18.7541 19.837 18.9065 20.0402C19.0588 20.2433 19.2747 20.3449 19.554 20.3449C19.5668 20.3449 19.589 20.3418 19.6208 20.3354C19.6525 20.329 19.6747 20.3259 19.6874 20.3259C19.7001 20.3259 19.7223 20.329 19.7541 20.3354C19.7858 20.3418 19.808 20.3449 19.8207 20.3449H22.5636ZM30.0682 20.2116C30.2841 20.0084 30.392 19.7767 30.392 19.5164C30.392 19.2561 30.3095 19.0243 30.1444 18.8212C30.0682 18.7069 29.2682 17.6339 27.7444 15.6021C28.4809 14.853 29.2238 14.1038 29.973 13.3546C30.1634 13.1641 30.2808 12.9387 30.3253 12.6784C30.3698 12.4181 30.2967 12.1736 30.1063 11.9451C29.8904 11.7419 29.6587 11.6594 29.411 11.6975C29.1634 11.7356 28.9317 11.8626 28.7158 12.0784C28.6777 12.1165 28.5126 12.2847 28.2206 12.5831C27.9285 12.8816 27.5508 13.2657 27.0873 13.7355C26.6238 14.2054 26.2143 14.6244 25.8588 14.9927V12.7832C25.8588 12.5165 25.7794 12.2689 25.6206 12.0403C25.4619 11.8117 25.2429 11.6975 24.9635 11.6975C24.6841 11.6975 24.4683 11.7991 24.3159 12.0022C24.1635 12.2054 24.0873 12.4657 24.0873 12.7832V19.2592C24.0873 19.5767 24.1635 19.837 24.3159 20.0402C24.4683 20.2433 24.6841 20.3449 24.9635 20.3449C25.2429 20.3449 25.4619 20.2307 25.6206 20.0021C25.7794 19.7735 25.8588 19.5259 25.8588 19.2592V17.526C25.9095 17.4751 26.0047 17.3768 26.1444 17.2307C26.2841 17.0847 26.3984 16.9672 26.4873 16.8783C27.3254 18.0212 28.0746 19.0306 28.7349 19.9069C28.9126 20.1481 29.119 20.3036 29.3539 20.3735C29.5888 20.4434 29.8269 20.3894 30.0682 20.2116ZM13.078 16.9164L14.2399 13.507L15.3827 16.9164H13.078Z" fill="black"/>
</svg>
